<svg version="1.1" id="Layer_1" xmlns="http://www.w3.org/2000/svg" xmlns:xlink="http://www.w3.org/1999/xlink" x="0px" y="0px"
	 width="100%" viewBox="0 0 200 200" enable-background="new 0 0 200 200" xml:space="preserve">
<path fill="#0C0C0C" opacity="1.000000" stroke="none" 
	d="
M142.000000,201.000000 
	C94.666672,201.000000 47.833340,201.000000 1.000006,201.000000 
	C1.000004,134.333344 1.000004,67.666679 1.000002,1.000015 
	C67.666656,1.000010 134.333313,1.000010 200.999969,1.000005 
	C200.999985,67.666649 200.999985,134.333298 201.000000,200.999969 
	C181.500000,201.000000 162.000000,201.000000 142.000000,201.000000 
M76.255417,108.163696 
	C76.446213,108.308075 76.637009,108.452461 76.513641,109.204346 
	C68.250572,119.181656 59.987499,129.158966 51.493069,139.415619 
	C53.895256,141.534607 56.100739,143.480072 57.992302,145.148621 
	C80.842850,131.731934 103.349899,118.516907 125.856956,105.301888 
	C126.146919,105.621170 126.436874,105.940453 126.726837,106.259735 
	C119.870804,115.030998 113.014771,123.802261 106.182587,132.543015 
	C107.945534,135.584198 109.514114,138.290085 111.126823,141.072113 
	C120.546143,135.517838 129.658981,130.144287 139.226257,125.155952 
	C139.393570,125.262924 139.560867,125.369888 139.456680,126.123413 
	C136.340912,131.196564 133.225143,136.269730 129.968842,141.571686 
	C132.514297,143.252441 134.966721,144.871750 137.786819,146.733856 
	C144.046310,136.638016 150.197632,126.716652 155.985245,117.381882 
	C153.293594,113.674866 151.009735,110.529488 148.693085,107.338928 
	C143.187302,110.559883 137.795731,113.714012 132.096970,116.268906 
	C131.969620,116.084068 131.842270,115.899223 131.926193,115.070404 
	C139.753296,105.087341 147.580414,95.104279 155.474670,85.035568 
	C152.783142,82.806473 150.639481,81.031113 149.076157,79.736382 
	C144.686325,82.652138 140.704971,85.534660 136.500565,88.043335 
	C125.121490,94.832947 113.669640,101.501701 102.203224,108.143440 
	C95.204391,112.197403 88.125351,116.112907 80.817696,119.765549 
	C80.817696,119.765549 80.553726,119.439957 80.878838,118.867340 
	C83.208466,116.059006 85.780289,113.415718 87.825844,110.413818 
	C96.735222,97.339111 108.550621,88.003372 122.896713,81.384163 
	C131.699448,77.322617 139.987244,72.145027 148.758881,67.329933 
	C147.199265,64.318520 145.853989,61.720963 144.452652,59.015156 
	C137.177887,62.816658 130.160263,66.483788 122.694824,69.754593 
	C122.537956,69.631599 122.381081,69.508614 122.551132,68.792648 
	C125.528862,65.112312 128.506592,61.431980 131.538055,57.685234 
	C129.008942,55.427681 126.918137,53.561371 124.600082,51.492210 
	C119.915031,57.102745 114.966873,62.120232 111.084961,67.858963 
	C101.930420,81.392372 89.385811,90.438026 74.752670,97.000298 
	C73.686333,97.478500 72.551186,97.803230 71.448029,98.199310 
	C81.295792,86.295486 86.585670,70.321465 103.672493,65.651962 
	C102.005119,62.275864 100.666817,59.566078 99.268791,56.735374 
	C86.743111,63.210777 74.765984,69.402588 62.788857,75.594398 
	C62.605057,75.292618 62.421253,74.990829 62.237453,74.689049 
	C65.166519,70.788902 68.095589,66.888756 71.136894,62.839176 
	C68.505089,60.768150 66.190773,58.946960 63.743774,57.021366 
	C57.800514,64.881546 52.090603,72.432846 46.381004,79.984375 
	C41.070625,87.007904 41.070770,87.008011 46.357956,94.859909 
	C53.130817,91.478081 59.918598,88.088799 67.299545,85.167061 
	C67.507637,85.308754 67.715736,85.450455 67.713760,86.258316 
	C61.251583,94.820190 54.789402,103.382072 48.549175,111.649879 
	C50.864639,114.459671 52.717327,116.707893 54.509281,118.882408 
	C61.640331,115.120720 68.673767,111.410522 76.255417,108.163696 
z"/>
<path fill="#FAFAFA" opacity="1.000000" stroke="none" 
	d="
M66.706375,84.699524 
	C59.918598,88.088799 53.130817,91.478081 46.357956,94.859909 
	C41.070770,87.008011 41.070625,87.007904 46.381004,79.984375 
	C52.090603,72.432846 57.800514,64.881546 63.743774,57.021366 
	C66.190773,58.946960 68.505089,60.768150 71.136894,62.839176 
	C68.095589,66.888756 65.166519,70.788902 62.237453,74.689049 
	C62.421253,74.990829 62.605057,75.292618 62.788857,75.594398 
	C74.765984,69.402588 86.743111,63.210777 99.268791,56.735374 
	C100.666817,59.566078 102.005119,62.275864 103.672493,65.651962 
	C86.585670,70.321465 81.295792,86.295486 71.448029,98.199310 
	C72.551186,97.803230 73.686333,97.478500 74.752670,97.000298 
	C89.385811,90.438026 101.930420,81.392372 111.084961,67.858963 
	C114.966873,62.120232 119.915031,57.102745 124.600082,51.492210 
	C126.918137,53.561371 129.008942,55.427681 131.538055,57.685234 
	C128.506592,61.431980 125.528862,65.112312 122.172806,69.267578 
	C121.724037,70.094978 121.653587,70.447449 121.583145,70.799911 
	C122.102966,70.583580 122.622803,70.367249 123.142639,70.150925 
	C130.160263,66.483788 137.177887,62.816658 144.452652,59.015156 
	C145.853989,61.720963 147.199265,64.318520 148.758881,67.329933 
	C139.987244,72.145027 131.699448,77.322617 122.896713,81.384163 
	C108.550621,88.003372 96.735222,97.339111 87.825844,110.413818 
	C85.780289,113.415718 83.208466,116.059006 80.469948,119.312675 
	C79.831787,120.055908 79.602516,120.353806 79.373238,120.651703 
	C79.942932,120.464668 80.512634,120.277634 81.082336,120.090599 
	C88.125351,116.112907 95.204391,112.197403 102.203224,108.143440 
	C113.669640,101.501701 125.121490,94.832947 136.500565,88.043335 
	C140.704971,85.534660 144.686325,82.652138 149.076157,79.736382 
	C150.639481,81.031113 152.783142,82.806473 155.474670,85.035568 
	C147.580414,95.104279 139.753296,105.087341 131.575317,115.499756 
	C131.118301,116.256294 131.012177,116.583473 130.626740,116.988228 
	C130.340118,117.330307 130.332809,117.594810 130.325485,117.859329 
	C130.705246,117.736771 131.084991,117.614212 131.655670,117.449158 
	C132.081177,117.277603 132.267029,117.098099 132.404160,116.868149 
	C137.795731,113.714012 143.187302,110.559883 148.693085,107.338928 
	C151.009735,110.529488 153.293594,113.674866 155.985245,117.381882 
	C150.197632,126.716652 144.046310,136.638016 137.786819,146.733856 
	C134.966721,144.871750 132.514297,143.252441 129.968842,141.571686 
	C133.225143,136.269730 136.340912,131.196564 139.691879,125.548752 
	C139.838623,124.718697 139.750153,124.463303 139.661682,124.207916 
	C139.365082,124.395523 139.068466,124.583138 138.771835,124.770752 
	C129.658981,130.144287 120.546143,135.517838 111.126823,141.072113 
	C109.514114,138.290085 107.945534,135.584198 106.182587,132.543015 
	C113.014771,123.802261 119.870804,115.030998 126.726837,106.259735 
	C126.436874,105.940453 126.146919,105.621170 125.856956,105.301888 
	C103.349899,118.516907 80.842850,131.731934 57.992302,145.148621 
	C56.100739,143.480072 53.895256,141.534607 51.493069,139.415619 
	C59.987499,129.158966 68.250572,119.181656 76.934052,108.681000 
	C77.435654,107.680244 77.516838,107.202827 77.598030,106.725410 
	C76.967751,107.050385 76.337479,107.375351 75.707199,107.700333 
	C68.673767,111.410522 61.640331,115.120720 54.509281,118.882408 
	C52.717327,116.707893 50.864639,114.459671 48.549175,111.649879 
	C54.789402,103.382072 61.251583,94.820190 68.086220,85.725014 
	C68.501381,84.725105 68.544075,84.258492 68.586769,83.791885 
	C67.959969,84.094429 67.333168,84.396973 66.706375,84.699524 
z"/>
<path fill="#0C0C0C" opacity="1.000000" stroke="none" 
	d="
M122.918732,69.952759 
	C122.622803,70.367249 122.102966,70.583580 121.583145,70.799911 
	C121.653587,70.447449 121.724037,70.094978 122.009338,69.564056 
	C122.381081,69.508614 122.537956,69.631599 122.918732,69.952759 
z"/>
<path fill="#0C0C0C" opacity="1.000000" stroke="none" 
	d="
M67.002960,84.933289 
	C67.333168,84.396973 67.959969,84.094429 68.586769,83.791885 
	C68.544075,84.258492 68.501381,84.725105 68.191254,85.391937 
	C67.715736,85.450455 67.507637,85.308754 67.002960,84.933289 
z"/>
<path fill="#0C0C0C" opacity="1.000000" stroke="none" 
	d="
M75.981308,107.932007 
	C76.337479,107.375351 76.967751,107.050385 77.598030,106.725410 
	C77.516838,107.202827 77.435654,107.680244 77.091141,108.377258 
	C76.637009,108.452461 76.446213,108.308075 75.981308,107.932007 
z"/>
<path fill="#0C0C0C" opacity="1.000000" stroke="none" 
	d="
M80.950012,119.928070 
	C80.512634,120.277634 79.942932,120.464668 79.373238,120.651703 
	C79.602516,120.353806 79.831787,120.055908 80.307388,119.598984 
	C80.553726,119.439957 80.817696,119.765549 80.950012,119.928070 
z"/>
<path fill="#0C0C0C" opacity="1.000000" stroke="none" 
	d="
M132.250565,116.568527 
	C132.267029,117.098099 132.081177,117.277603 131.518890,117.301132 
	C131.191162,117.195602 130.906052,116.910660 130.906052,116.910660 
	C131.012177,116.583473 131.118301,116.256294 131.469666,115.821747 
	C131.842270,115.899223 131.969620,116.084068 132.250565,116.568527 
z"/>
<path fill="#0C0C0C" opacity="1.000000" stroke="none" 
	d="
M131.327942,117.343628 
	C131.084991,117.614212 130.705246,117.736771 130.325485,117.859329 
	C130.332809,117.594810 130.340118,117.330307 130.626740,116.988228 
	C130.906052,116.910660 131.191162,117.195602 131.327942,117.343628 
z"/>
<path fill="#0C0C0C" opacity="1.000000" stroke="none" 
	d="
M138.999054,124.963348 
	C139.068466,124.583138 139.365082,124.395523 139.661682,124.207916 
	C139.750153,124.463303 139.838623,124.718697 139.827637,125.225479 
	C139.560867,125.369888 139.393570,125.262924 138.999054,124.963348 
z"/>
</svg>